<?xml version="1.0" encoding="UTF-8"?>
<svg width="423px" height="343px" viewBox="0 0 423 343" version="1.1" xmlns="http://www.w3.org/2000/svg" xmlns:xlink="http://www.w3.org/1999/xlink">
    <!-- Generator: Sketch 47.1 (45422) - http://www.bohemiancoding.com/sketch -->
    <title>ManyCoins</title>
    <desc>Created with Sketch.</desc>
    <defs></defs>
    <g id="Page-1" stroke="none" stroke-width="1" fill="none" fill-rule="evenodd">
        <g id="Up" transform="translate(-48.000000, -74.000000)" stroke="#FFFFFF" fill="#F44961">
            <g id="ManyCoins" transform="translate(44.000000, 48.000000)">
                <g id="Group-2" transform="translate(0.000000, 27.000000)">
                    <g id="Group" transform="translate(27.000000, 0.000000)" stroke-width="10">
                        <g id="coin-stack">
                            <g id="Coin" transform="translate(26.276596, 164.400000)">
                                <path d="M160.13557,51.8221078 C161.997998,45.591185 173.439602,35.1427849 194.460384,20.4769076 C203.842278,22.699465 208.189981,34.3877394 207.503494,55.5417309 C207.157378,66.2072478 206.214731,74.1955219 204.675554,79.5065533 C202.632325,96.4574929 158.787858,110 105,110 C60.1447671,110 22.2045352,100.582041 9.65509434,87.6233253 C3.90978122,82.72906 1.30837637,71.9233487 1.85087979,55.2061912 C2.32655576,40.5483111 3.9289388,30.9471202 6.65802892,26.4026187 C23.1972528,20.5786661 49.8898127,29.9594558 50.0684913,51.7790884 C65.8218865,48.4668493 84.7029978,46.5384615 105,46.5384615 C125.384717,46.5384615 144.341278,48.4835526 160.13557,51.8221078 Z" id="Path"></path>
                                <ellipse id="Oval" cx="105" cy="31.7307692" rx="99.75" ry="31.7307692"></ellipse>
                            </g>
                            <g id="Coin" transform="translate(13.138298, 109.600000)">
                                <path d="M160.13557,51.8221078 C161.997998,45.591185 173.439602,35.1427849 194.460384,20.4769076 C203.842278,22.699465 208.189981,34.3877394 207.503494,55.5417309 C207.157378,66.2072478 206.214731,74.1955219 204.675554,79.5065533 C202.632325,96.4574929 158.787858,110 105,110 C60.1447671,110 22.2045352,100.582041 9.65509434,87.6233253 C3.90978122,82.72906 1.30837637,71.9233487 1.85087979,55.2061912 C2.32655576,40.5483111 3.9289388,30.9471202 6.65802892,26.4026187 C23.1972528,20.5786661 49.8898127,29.9594558 50.0684913,51.7790884 C65.8218865,48.4668493 84.7029978,46.5384615 105,46.5384615 C125.384717,46.5384615 144.341278,48.4835526 160.13557,51.8221078 Z" id="Path"></path>
                                <ellipse id="Oval" cx="105" cy="31.7307692" rx="99.75" ry="31.7307692"></ellipse>
                            </g>
                            <g id="Coin" transform="translate(21.021277, 46.369231)">
                                <path d="M160.13557,51.8221078 C161.997998,45.591185 173.439602,35.1427849 194.460384,20.4769076 C203.842278,22.699465 208.189981,34.3877394 207.503494,55.5417309 C207.157378,66.2072478 206.214731,74.1955219 204.675554,79.5065533 C202.632325,96.4574929 158.787858,110 105,110 C60.1447671,110 22.2045352,100.582041 9.65509434,87.6233253 C3.90978122,82.72906 1.30837637,71.9233487 1.85087979,55.2061912 C2.32655576,40.5483111 3.9289388,30.9471202 6.65802892,26.4026187 C23.1972528,20.5786661 49.8898127,29.9594558 50.0684913,51.7790884 C65.8218865,48.4668493 84.7029978,46.5384615 105,46.5384615 C125.384717,46.5384615 144.341278,48.4835526 160.13557,51.8221078 Z" id="Path"></path>
                                <ellipse id="Oval" cx="105" cy="31.7307692" rx="99.75" ry="31.7307692"></ellipse>
                            </g>
                            <g id="Coin" transform="translate(7.882979, 4.215385)">
                                <path d="M160.13557,51.8221078 C161.997998,45.591185 173.439602,35.1427849 194.460384,20.4769076 C203.842278,22.699465 208.189981,34.3877394 207.503494,55.5417309 C207.157378,66.2072478 206.214731,74.1955219 204.675554,79.5065533 C202.632325,96.4574929 158.787858,110 105,110 C60.1447671,110 22.2045352,100.582041 9.65509434,87.6233253 C3.90978122,82.72906 1.30837637,71.9233487 1.85087979,55.2061912 C2.32655576,40.5483111 3.9289388,30.9471202 6.65802892,26.4026187 C23.1972528,20.5786661 49.8898127,29.9594558 50.0684913,51.7790884 C65.8218865,48.4668493 84.7029978,46.5384615 105,46.5384615 C125.384717,46.5384615 144.341278,48.4835526 160.13557,51.8221078 Z" id="Path"></path>
                                <ellipse id="Oval" cx="105" cy="31.7307692" rx="99.75" ry="31.7307692"></ellipse>
                            </g>
                        </g>
                    </g>
                    <g id="Group" transform="translate(188.000000, 37.000000)" stroke-width="10">
                        <g id="coin-stack">
                            <g id="Coin" transform="translate(26.276596, 164.400000)">
                                <path d="M160.13557,51.8221078 C161.997998,45.591185 173.439602,35.1427849 194.460384,20.4769076 C203.842278,22.699465 208.189981,34.3877394 207.503494,55.5417309 C207.157378,66.2072478 206.214731,74.1955219 204.675554,79.5065533 C202.632325,96.4574929 158.787858,110 105,110 C60.1447671,110 22.2045352,100.582041 9.65509434,87.6233253 C3.90978122,82.72906 1.30837637,71.9233487 1.85087979,55.2061912 C2.32655576,40.5483111 3.9289388,30.9471202 6.65802892,26.4026187 C23.1972528,20.5786661 49.8898127,29.9594558 50.0684913,51.7790884 C65.8218865,48.4668493 84.7029978,46.5384615 105,46.5384615 C125.384717,46.5384615 144.341278,48.4835526 160.13557,51.8221078 Z" id="Path"></path>
                                <ellipse id="Oval" cx="105" cy="31.7307692" rx="99.75" ry="31.7307692"></ellipse>
                            </g>
                            <g id="Coin" transform="translate(13.138298, 109.600000)">
                                <path d="M160.13557,51.8221078 C161.997998,45.591185 173.439602,35.1427849 194.460384,20.4769076 C203.842278,22.699465 208.189981,34.3877394 207.503494,55.5417309 C207.157378,66.2072478 206.214731,74.1955219 204.675554,79.5065533 C202.632325,96.4574929 158.787858,110 105,110 C60.1447671,110 22.2045352,100.582041 9.65509434,87.6233253 C3.90978122,82.72906 1.30837637,71.9233487 1.85087979,55.2061912 C2.32655576,40.5483111 3.9289388,30.9471202 6.65802892,26.4026187 C23.1972528,20.5786661 49.8898127,29.9594558 50.0684913,51.7790884 C65.8218865,48.4668493 84.7029978,46.5384615 105,46.5384615 C125.384717,46.5384615 144.341278,48.4835526 160.13557,51.8221078 Z" id="Path"></path>
                                <ellipse id="Oval" cx="105" cy="31.7307692" rx="99.75" ry="31.7307692"></ellipse>
                            </g>
                            <g id="Coin" transform="translate(21.021277, 46.369231)">
                                <path d="M160.13557,51.8221078 C161.997998,45.591185 173.439602,35.1427849 194.460384,20.4769076 C203.842278,22.699465 208.189981,34.3877394 207.503494,55.5417309 C207.157378,66.2072478 206.214731,74.1955219 204.675554,79.5065533 C202.632325,96.4574929 158.787858,110 105,110 C60.1447671,110 22.2045352,100.582041 9.65509434,87.6233253 C3.90978122,82.72906 1.30837637,71.9233487 1.85087979,55.2061912 C2.32655576,40.5483111 3.9289388,30.9471202 6.65802892,26.4026187 C23.1972528,20.5786661 49.8898127,29.9594558 50.0684913,51.7790884 C65.8218865,48.4668493 84.7029978,46.5384615 105,46.5384615 C125.384717,46.5384615 144.341278,48.4835526 160.13557,51.8221078 Z" id="Path"></path>
                                <ellipse id="Oval" cx="105" cy="31.7307692" rx="99.75" ry="31.7307692"></ellipse>
                            </g>
                            <g id="Coin" transform="translate(7.882979, 4.215385)">
                                <path d="M160.13557,51.8221078 C161.997998,45.591185 173.439602,35.1427849 194.460384,20.4769076 C203.842278,22.699465 208.189981,34.3877394 207.503494,55.5417309 C207.157378,66.2072478 206.214731,74.1955219 204.675554,79.5065533 C202.632325,96.4574929 158.787858,110 105,110 C60.1447671,110 22.2045352,100.582041 9.65509434,87.6233253 C3.90978122,82.72906 1.30837637,71.9233487 1.85087979,55.2061912 C2.32655576,40.5483111 3.9289388,30.9471202 6.65802892,26.4026187 C23.1972528,20.5786661 49.8898127,29.9594558 50.0684913,51.7790884 C65.8218865,48.4668493 84.7029978,46.5384615 105,46.5384615 C125.384717,46.5384615 144.341278,48.4835526 160.13557,51.8221078 Z" id="Path"></path>
                                <ellipse id="Oval" cx="105" cy="31.7307692" rx="99.75" ry="31.7307692"></ellipse>
                            </g>
                        </g>
                    </g>
                    <g id="Group" transform="translate(0.000000, 62.000000)" stroke-width="10">
                        <g id="coin-stack">
                            <g id="Coin" transform="translate(26.276596, 164.400000)">
                                <path d="M160.13557,51.8221078 C161.997998,45.591185 173.439602,35.1427849 194.460384,20.4769076 C203.842278,22.699465 208.189981,34.3877394 207.503494,55.5417309 C207.157378,66.2072478 206.214731,74.1955219 204.675554,79.5065533 C202.632325,96.4574929 158.787858,110 105,110 C60.1447671,110 22.2045352,100.582041 9.65509434,87.6233253 C3.90978122,82.72906 1.30837637,71.9233487 1.85087979,55.2061912 C2.32655576,40.5483111 3.9289388,30.9471202 6.65802892,26.4026187 C23.1972528,20.5786661 49.8898127,29.9594558 50.0684913,51.7790884 C65.8218865,48.4668493 84.7029978,46.5384615 105,46.5384615 C125.384717,46.5384615 144.341278,48.4835526 160.13557,51.8221078 Z" id="Path"></path>
                                <ellipse id="Oval" cx="105" cy="31.7307692" rx="99.75" ry="31.7307692"></ellipse>
                            </g>
                            <g id="Coin" transform="translate(13.138298, 109.600000)">
                                <path d="M160.13557,51.8221078 C161.997998,45.591185 173.439602,35.1427849 194.460384,20.4769076 C203.842278,22.699465 208.189981,34.3877394 207.503494,55.5417309 C207.157378,66.2072478 206.214731,74.1955219 204.675554,79.5065533 C202.632325,96.4574929 158.787858,110 105,110 C60.1447671,110 22.2045352,100.582041 9.65509434,87.6233253 C3.90978122,82.72906 1.30837637,71.9233487 1.85087979,55.2061912 C2.32655576,40.5483111 3.9289388,30.9471202 6.65802892,26.4026187 C23.1972528,20.5786661 49.8898127,29.9594558 50.0684913,51.7790884 C65.8218865,48.4668493 84.7029978,46.5384615 105,46.5384615 C125.384717,46.5384615 144.341278,48.4835526 160.13557,51.8221078 Z" id="Path"></path>
                                <ellipse id="Oval" cx="105" cy="31.7307692" rx="99.75" ry="31.7307692"></ellipse>
                            </g>
                            <g id="Coin" transform="translate(21.021277, 46.369231)">
                                <path d="M160.13557,51.8221078 C161.997998,45.591185 173.439602,35.1427849 194.460384,20.4769076 C203.842278,22.699465 208.189981,34.3877394 207.503494,55.5417309 C207.157378,66.2072478 206.214731,74.1955219 204.675554,79.5065533 C202.632325,96.4574929 158.787858,110 105,110 C60.1447671,110 22.2045352,100.582041 9.65509434,87.6233253 C3.90978122,82.72906 1.30837637,71.9233487 1.85087979,55.2061912 C2.32655576,40.5483111 3.9289388,30.9471202 6.65802892,26.4026187 C23.1972528,20.5786661 49.8898127,29.9594558 50.0684913,51.7790884 C65.8218865,48.4668493 84.7029978,46.5384615 105,46.5384615 C125.384717,46.5384615 144.341278,48.4835526 160.13557,51.8221078 Z" id="Path"></path>
                                <ellipse id="Oval" cx="105" cy="31.7307692" rx="99.75" ry="31.7307692"></ellipse>
                            </g>
                            <g id="Coin" transform="translate(7.882979, 4.215385)">
                                <path d="M160.13557,51.8221078 C161.997998,45.591185 173.439602,35.1427849 194.460384,20.4769076 C203.842278,22.699465 208.189981,34.3877394 207.503494,55.5417309 C207.157378,66.2072478 206.214731,74.1955219 204.675554,79.5065533 C202.632325,96.4574929 158.787858,110 105,110 C60.1447671,110 22.2045352,100.582041 9.65509434,87.6233253 C3.90978122,82.72906 1.30837637,71.9233487 1.85087979,55.2061912 C2.32655576,40.5483111 3.9289388,30.9471202 6.65802892,26.4026187 C23.1972528,20.5786661 49.8898127,29.9594558 50.0684913,51.7790884 C65.8218865,48.4668493 84.7029978,46.5384615 105,46.5384615 C125.384717,46.5384615 144.341278,48.4835526 160.13557,51.8221078 Z" id="Path"></path>
                                <ellipse id="Oval" cx="105" cy="31.7307692" rx="99.75" ry="31.7307692"></ellipse>
                            </g>
                        </g>
                    </g>
                </g>
            </g>
        </g>
    </g>
</svg>